<svg xmlns="http://www.w3.org/2000/svg" width="22.7" height="22.64" viewBox="0 0 22.7 22.64"><defs><style>.cls-1{fill:#ff3d00;}.cls-1,.cls-2{fill-rule:evenodd;}.cls-2{fill:#89c0ec;}</style></defs><g id="panel_icon_deliverydriver_parent"><path class="cls-1" d="M14.24,7.05a2.76,2.76,0,0,1-2.8,2.7A2.67,2.67,0,0,1,8.65,7.12a2.72,2.72,0,0,1,2.91-2.7A2.68,2.68,0,0,1,14.24,7.05ZM18,6.93c0,3.12-4.61,8.8-6.48,11.32a37.29,37.29,0,0,1-6.25-9.4A6.11,6.11,0,0,1,5,6,6.2,6.2,0,0,1,11.38,1C14.66,1,18,3.23,18,6.93Z"/><path class="cls-2" d="M6.62,14.21,11.53,20l4.74-5.74s5.45.77,5.45,4-7.25,3.42-11,3.42S1,20.52,1,17.91,6.62,14.21,6.62,14.21Z"/></g></svg>