<svg xmlns="http://www.w3.org/2000/svg" width="22.7" height="22.64" viewBox="0 0 22.7 22.64"><defs><style>.cls-1{fill:#ff5521;fill-rule:evenodd;}</style></defs><g id="panel_icon_discounts_parent"><g id="panel_icon_discounts_parent-2" data-name="panel_icon_discounts_parent"><path id="panel_icon_discounts" class="cls-1" d="M15.61,14.08A1.66,1.66,0,0,1,14,15.69a1.47,1.47,0,0,1-1.52-1.61A1.32,1.32,0,0,1,14,12.56,1.47,1.47,0,0,1,15.61,14.08Zm0-5.87c0,.38-.1.48-.85,1.32-2.09,1.9-4.07,4.08-6.07,6a.69.69,0,0,1-.57.19c-.94,0-1-.66-1-1.14s0-.57.85-1.32c.47-.48,5.39-6.06,6.53-6.06A1,1,0,0,1,15.61,8.21Zm-5.31.48a1.67,1.67,0,0,1-1.7,1.69A1.57,1.57,0,0,1,7.09,8.69,1.39,1.39,0,0,1,8.6,7.17,1.6,1.6,0,0,1,10.3,8.69ZM15,5.18h1.8a.83.83,0,0,1,.84.76v1.8c.29,2.07,2.09,2.27,2.09,3.69s-2.09,1.8-2.09,3.6v1.8a.9.9,0,0,1-.84.84H15c-2.09.28-2.28,2.08-3.6,2.08s-1.9-2.08-3.69-2.08H5.86a.85.85,0,0,1-.77-.75v-2c-.09-1-1.51-2.37-2-2.84a1.23,1.23,0,0,1-.35-.69.72.72,0,0,1,.35-.63c.84-1,1.8-2,1.92-3s0-1.25.06-1.85a.76.76,0,0,1,.77-.76h1.8C9.73,4.8,10,3.1,11.25,3.1S13.43,5.18,15,5.18ZM13.52,1.49c.48.38,1,1.14,1.52,1.23a17.8,17.8,0,0,0,2.27.19,3.72,3.72,0,0,1,2.47,2.65A11.46,11.46,0,0,0,20.06,8c.19.47.85.76,1.13,1.23A2.48,2.48,0,0,1,22,11.43a2.81,2.81,0,0,1-.11,1c-.18.66-1.6,1.7-1.89,2.74a8.79,8.79,0,0,0-.18,2.27,3.6,3.6,0,0,1-2.19,2.36c-.84.2-1.8.11-2.55.29s-2.29,1.56-2.6,1.71a3.72,3.72,0,0,1-1.09.28c-1.62,0-1.23-.48-3.41-1.89-.76-.48-1.71-.19-2.56-.28a3.93,3.93,0,0,1-2.55-2.47c-.11-.76-.11-1.61-.2-2.27S1,13,.74,12.38A2.75,2.75,0,0,1,.83,10c.4-.47,1-1.16,1.71-2a1.81,1.81,0,0,0,.18-.66V6.5A3.51,3.51,0,0,1,5.38,2.91a10.45,10.45,0,0,0,2.37-.19C8.5,2.44,9.61,1.19,10.4.83A3,3,0,0,1,11.5.61C12.11.61,12.48.64,13.52,1.49Z"/></g></g></svg>