<svg xmlns="http://www.w3.org/2000/svg" width="22.7" height="22.64" viewBox="0 0 22.7 22.64"><defs><style>.cls-1{fill:#4b4b4b;fill-rule:evenodd;}</style></defs><g id="panel_icon_settings_parent"><path class="cls-1" d="M14.64,11.24a3.15,3.15,0,0,1-3.17,3,3.07,3.07,0,0,1-3.13-3v0a3.16,3.16,0,0,1,6.3,0ZM13.75.6c.2-.12.49.16.49.32a11,11,0,0,0,.42,2.79c.08.21.51.21.77.35s1,.72,1.08.72,2.7-1.07,2.92-1.07.29,0,.43.19c.83,1.23,1.54,2.58,2.28,3.85a.31.31,0,0,1,.09.26.44.44,0,0,1-.11.33c-.77.62-2.42,1.82-2.42,1.82s.09.94.09,1.08l-.09,1c0,.08,1.65,1.24,2.42,1.94.16.13.11.16.11.3a3.09,3.09,0,0,1-.37.78c-.65,1.07-1.31,2.24-2,3.32a.55.55,0,0,1-.4.16l-2.93-1.07a9.61,9.61,0,0,1-1.23.75c-.19.11-.57.09-.65.33a15,15,0,0,0-.42,2.82.93.93,0,0,1-.52.55H9.23a1,1,0,0,1-.52-.52,11.26,11.26,0,0,0-.43-2.82c-.08-.27-.54-.27-.76-.41-.38-.21-.75-.43-1.1-.67L3.5,18.77c-.25,0-.53-.34-.65-.53A39.11,39.11,0,0,0,.61,14.67v-.16c.09-.08.09-.26.21-.37.76-.63,2.42-1.8,2.42-1.88s0-2,0-2.06S1.6,9,.86,8.34A.31.31,0,0,1,.74,8c0-.3.26-.53.43-.88a4.47,4.47,0,0,1,.4-.67c.28-.53.65-1.08,1-1.63a3.27,3.27,0,0,1,.65-1,1.07,1.07,0,0,1,.31-.09L6.42,4.78A11.45,11.45,0,0,1,7.68,4c.17-.11.45-.16.59-.3a.37.37,0,0,0,.06-.25c.09-.51.18-1.08.23-1.55S8.43.71,9.19.6Z"/></g></svg>